<?xml version="1.0" encoding="UTF-8" standalone="no"?>
<!DOCTYPE svg PUBLIC "-//W3C//DTD SVG 1.1//EN" "http://www.w3.org/Graphics/SVG/1.1/DTD/svg11.dtd">
<svg width="100%" height="100%" viewBox="0 0 1016 1016" version="1.1" xmlns="http://www.w3.org/2000/svg" xmlns:xlink="http://www.w3.org/1999/xlink" xml:space="preserve" xmlns:serif="http://www.serif.com/" style="fill-rule:evenodd;clip-rule:evenodd;stroke-linecap:round;stroke-linejoin:round;stroke-miterlimit:1.5;">
    <g transform="matrix(-0.940047,0,0,0.940047,3474.56,-439.503)">
        <circle cx="3156.08" cy="1007.62" r="517.92" style="fill:rgb(121,131,148);"/>
        <clipPath id="_clip1">
            <circle cx="3156.08" cy="1007.62" r="517.92"/>
        </clipPath>
        <g clip-path="url(#_clip1)">
            <g transform="matrix(-1.06378,0,0,1.06378,4296.53,-260.46)">
                <path d="M684.142,1338.47C683.542,1357.84 682.343,1396.57 703.854,1405.48C752.923,1425.81 926.818,1445.48 978.557,1460.43C994.517,1465.04 999.189,1488.25 1014.28,1495.18C1029.87,1502.34 1052.62,1503.67 1072.08,1503.39C1092.29,1503.11 1119.01,1500.91 1135.54,1493.46C1150.68,1486.64 1155.3,1463.33 1171.27,1458.72C1222.05,1444.05 1392.19,1425.23 1440.22,1405.48C1461.19,1396.86 1460.01,1359.1 1459.42,1340.22" style="fill:rgb(123,96,89);"/>
                <path d="M671.717,1338.09C671.066,1352.66 670.457,1377.1 677.299,1394.45C681.57,1405.29 688.661,1413.57 698.71,1417.9C711.069,1423.2 731.052,1428.64 755.057,1433.92C826.505,1449.61 935.149,1464.46 974.029,1476.1C978.279,1477.36 980.175,1481.9 982.852,1485.77C986.467,1490.99 990.082,1496.33 994.295,1500.71C998.122,1504.69 1002.44,1507.95 1007.37,1510.23C1015.18,1513.84 1024.48,1516.31 1034.38,1517.84C1046.75,1519.75 1060.13,1520.19 1072.32,1520.03C1084.83,1519.82 1099.68,1518.91 1113.37,1516.61C1124.15,1514.8 1134.24,1512.11 1142.29,1508.45C1147.24,1506.18 1151.58,1502.93 1155.41,1498.94C1160.43,1493.71 1164.54,1487.03 1168.95,1480.98C1170.97,1478.2 1172.59,1475.12 1175.73,1474.19C1213.88,1462.77 1320.15,1448.45 1390.06,1433.31C1413.59,1428.21 1433.17,1422.96 1445.29,1417.81C1455.17,1413.61 1462.15,1405.49 1466.36,1394.86C1473.06,1377.94 1472.47,1354.06 1471.84,1339.83C1471.63,1332.98 1465.88,1327.58 1459.03,1327.8C1452.17,1328.01 1446.78,1333.75 1446.99,1340.61C1447.15,1349.25 1447.43,1362.14 1445.3,1373.93C1443.81,1382.22 1441.92,1390.47 1435.15,1393.16C1424,1397.59 1405.99,1401.76 1384.44,1405.95C1313.38,1419.76 1205.62,1432.44 1166.8,1443.24C1161.08,1444.86 1156.16,1447.81 1151.77,1451.68C1147,1455.88 1142.95,1461.4 1138.99,1467.04C1135.9,1471.44 1133.4,1476.44 1128.79,1478.48C1123.01,1481.05 1115.72,1482.73 1108,1483.98C1095.94,1485.92 1082.86,1486.62 1071.84,1486.75C1061.42,1486.91 1049.98,1486.6 1039.39,1485C1032.74,1484 1026.45,1482.53 1021.2,1480.13C1016.59,1478.04 1014.09,1473.01 1011,1468.61C1007.02,1462.95 1002.95,1457.43 998.16,1453.21C993.762,1449.34 988.823,1446.39 983.085,1444.76C943.534,1433.75 833.428,1420.5 760.817,1406.23C738.806,1401.9 720.394,1397.62 708.997,1393.07C701.959,1390.26 699.92,1381.73 698.354,1373.12C696.146,1360.99 696.413,1347.74 696.566,1338.86C696.778,1332 691.384,1326.26 684.526,1326.05C677.669,1325.83 671.93,1331.23 671.717,1338.09Z" style="fill:rgb(47,38,50);"/>
            </g>
            <g transform="matrix(1.06378,0,0,1.06378,2015.62,-260.46)">
                <path d="M1072.08,1466.6C1058.55,1466.6 1040.82,1458.95 1031.5,1452.82C1023.8,1447.77 1024.83,1432.93 1016.14,1429.86C990.125,1420.68 922.534,1407.4 875.393,1397.72C822.293,1386.81 729.313,1375.52 697.538,1364.42C686.313,1360.5 682.742,1342.85 684.742,1331.13C695.618,1267.42 743.601,1042.79 762.794,982.131C766.816,969.42 786.571,966.986 799.901,967.206C834.661,967.78 925.996,975.817 971.359,985.575C1006.7,993.177 1038.51,1025.76 1072.08,1025.76C1105.65,1025.76 1137.46,993.177 1172.8,985.575C1218.16,975.817 1309.5,967.78 1344.26,967.206C1357.59,966.986 1377.34,969.42 1381.37,982.131C1400.56,1042.79 1448.54,1267.42 1459.42,1331.13C1461.42,1342.85 1457.85,1360.5 1446.62,1364.42C1414.85,1375.52 1321.87,1386.81 1268.77,1397.72C1221.63,1407.4 1154.04,1420.68 1128.02,1429.86C1119.34,1432.93 1120.36,1447.77 1112.66,1452.82C1103.34,1458.95 1085.61,1466.6 1072.08,1466.6Z" style="fill:rgb(87,64,72);"/>
                <clipPath id="_clip2">
                    <path d="M1072.08,1466.6C1058.55,1466.6 1040.82,1458.95 1031.5,1452.82C1023.8,1447.77 1024.83,1432.93 1016.14,1429.86C990.125,1420.68 922.534,1407.4 875.393,1397.72C822.293,1386.81 729.313,1375.52 697.538,1364.42C686.313,1360.5 682.742,1342.85 684.742,1331.13C695.618,1267.42 743.601,1042.79 762.794,982.131C766.816,969.42 786.571,966.986 799.901,967.206C834.661,967.78 925.996,975.817 971.359,985.575C1006.7,993.177 1038.51,1025.76 1072.08,1025.76C1105.65,1025.76 1137.46,993.177 1172.8,985.575C1218.16,975.817 1309.5,967.78 1344.26,967.206C1357.59,966.986 1377.34,969.42 1381.37,982.131C1400.56,1042.79 1448.54,1267.42 1459.42,1331.13C1461.42,1342.85 1457.85,1360.5 1446.62,1364.42C1414.85,1375.52 1321.87,1386.81 1268.77,1397.72C1221.63,1407.4 1154.04,1420.68 1128.02,1429.86C1119.34,1432.93 1120.36,1447.77 1112.66,1452.82C1103.34,1458.95 1085.61,1466.6 1072.08,1466.6Z"/>
                </clipPath>
                <g clip-path="url(#_clip2)">
                    <g transform="matrix(-1,0,0,1,2144.16,3.97904e-13)">
                        <path d="M1070.77,1475.66L1070.77,1345.66C1070.77,1345.66 1036.38,1389.2 1027.86,1404.98C1022.11,1415.62 1013.38,1429.98 1019.66,1440.32C1026.81,1452.1 1070.77,1475.66 1070.77,1475.66Z" style="fill:rgb(47,38,50);"/>
                    </g>
                    <g transform="matrix(-1,0,0,1,2144.16,3.97904e-13)">
                        <path d="M950.519,1443.24C964.981,1440.74 791.961,1359.36 758.829,1337.54C751.53,1332.73 750.676,1320.97 751.73,1312.29C759.092,1251.68 803.794,1029.49 803.005,973.878C802.739,955.144 753.12,960.904 746.997,978.611C725.172,1041.72 638.136,1275.09 672.056,1352.52C705.977,1429.96 936.057,1445.74 950.519,1443.24Z" style="fill:rgb(122,96,89);"/>
                    </g>
                </g>
                <path d="M1133.51,1441.53C1142.7,1438.45 1156.64,1434.97 1172.79,1431.31C1203.31,1424.39 1241.54,1416.97 1271.49,1410.97C1310.88,1403.08 1372.2,1395.08 1414.23,1387.02C1429.7,1384.05 1442.69,1381.01 1451.37,1378.02C1459.79,1375.13 1466.27,1368.34 1470.17,1359.38C1474.3,1349.92 1475.33,1337.95 1473.79,1328.68C1467.6,1291.52 1449.07,1199.86 1430.88,1117.59C1417.68,1057.84 1404.63,1003.01 1396.6,977.31C1394.1,969.301 1388.65,963.138 1381.16,958.819C1370.82,952.855 1355.58,950.946 1343.99,951.107C1325.56,951.361 1291.47,953.617 1256.52,957.137C1224.36,960.378 1191.48,964.709 1169.33,969.424C1144.08,974.823 1120.38,992.04 1096.81,1002.63C1088.6,1006.32 1080.44,1009.12 1072.08,1009.11C1063.73,1009.11 1055.58,1006.29 1047.37,1002.59C1023.8,991.98 1000.09,974.768 974.847,969.36C952.695,964.628 919.817,960.269 887.649,957.01C852.704,953.468 818.605,951.204 800.169,950.941C788.557,950.776 773.272,952.686 762.908,958.664C755.38,963.007 749.909,969.205 747.394,977.258C739.364,1002.96 726.288,1057.79 713.08,1117.55C694.896,1199.82 676.394,1291.49 670.207,1328.65C668.668,1337.95 669.709,1349.96 673.845,1359.44C677.77,1368.44 684.281,1375.26 692.738,1378.17C701.428,1381.15 714.419,1384.19 729.9,1387.16C771.931,1395.22 833.249,1403.2 872.646,1411.09C902.603,1417.07 940.833,1424.45 971.361,1431.35C987.509,1435 1001.44,1438.48 1010.64,1441.55C1011.05,1442.38 1011.79,1443.9 1012.17,1444.89C1013.55,1448.46 1014.94,1452.13 1016.81,1455.21C1018.84,1458.55 1021.36,1461.36 1024.54,1463.42C1030.04,1466.99 1038.08,1471.05 1046.71,1474.09C1055.21,1477.08 1064.25,1479.07 1072.08,1479.03C1079.91,1479.07 1088.95,1477.08 1097.45,1474.08C1106.08,1471.04 1114.11,1466.98 1119.61,1463.4C1122.78,1461.35 1125.31,1458.54 1127.34,1455.2C1129.21,1452.12 1130.59,1448.45 1131.97,1444.89C1132.35,1443.89 1133.09,1442.36 1133.51,1441.53ZM778.041,987.498C778.022,987.518 777.998,987.518 777.969,987.493C777.403,986.994 779.228,986.633 779.987,986.287C781.836,985.445 783.936,984.899 786.088,984.482C790.692,983.591 795.542,983.394 799.632,983.471C817.474,983.806 850.46,986.208 884.27,989.76C915.109,993 946.638,997.191 967.871,1001.79C980.164,1004.45 991.894,1010.69 1003.51,1017.08C1017.54,1024.8 1031.37,1032.83 1045.27,1037.59C1054.14,1040.63 1063.07,1042.41 1072.08,1042.4C1081.09,1042.39 1090.01,1040.6 1098.88,1037.55C1112.77,1032.78 1126.6,1024.76 1140.63,1017.03C1152.24,1010.63 1163.98,1004.39 1176.28,1001.73C1197.51,997.11 1229.04,992.891 1259.88,989.633C1293.69,986.06 1326.68,983.649 1344.53,983.306C1348.63,983.227 1353.49,983.421 1358.11,984.313C1360.27,984.732 1362.39,985.279 1364.25,986.127C1365.03,986.483 1366.9,986.865 1366.32,987.38C1366.3,987.398 1366.28,987.401 1366.27,987.389L1366.13,986.952C1366.17,987.078 1366.19,987.352 1366.27,987.389C1374.35,1012.73 1387.45,1066.16 1400.8,1124.37C1419.48,1205.9 1438.61,1296.75 1445.05,1333.59C1445.57,1336.56 1445.52,1340.13 1444.86,1343.53C1444.51,1345.33 1444.02,1347.09 1443.26,1348.64C1442.85,1349.49 1442.69,1350.53 1441.87,1350.83C1431.01,1354.68 1412.63,1358.53 1391.2,1362.45C1350.9,1369.84 1300.22,1377.27 1266.04,1384.46C1235.95,1390.8 1197.55,1398.63 1166.89,1405.9C1148.89,1410.17 1133.5,1414.28 1123.75,1417.78C1119.42,1419.34 1116.02,1422 1113.36,1425.58C1111.03,1428.73 1109.29,1432.76 1107.75,1436.93C1107.23,1438.33 1106.73,1439.75 1106.12,1441.07C1105.91,1441.51 1105.5,1442.24 1105.36,1442.46C1101.24,1445.16 1095.31,1448.16 1088.98,1450.46C1083.31,1452.53 1077.32,1454.14 1072.08,1454.17C1066.84,1454.14 1060.85,1452.52 1055.18,1450.46C1048.86,1448.15 1042.94,1445.16 1038.82,1442.46C1038.58,1441.95 1037.11,1438.76 1036.43,1436.92C1034.89,1432.75 1033.15,1428.71 1030.82,1425.57C1028.15,1421.98 1024.75,1419.32 1020.42,1417.76C1010.67,1414.26 995.274,1410.14 977.274,1405.86C946.623,1398.57 908.226,1390.7 878.14,1384.34C843.965,1377.15 793.289,1369.7 752.982,1362.31C731.563,1358.38 713.196,1354.54 702.337,1350.68C701.549,1350.4 701.434,1349.39 701.037,1348.58C700.285,1347.03 699.795,1345.28 699.45,1343.5C698.796,1340.12 698.757,1336.57 699.277,1333.61C705.72,1296.78 724.875,1205.94 743.562,1124.41C756.891,1066.26 769.958,1012.87 778.041,987.498C778.119,987.438 778.15,987.143 778.194,987.004L778.041,987.498Z" style="fill:rgb(47,38,50);"/>
            </g>
            <g transform="matrix(-1.06378,0,0,1.06378,4296.53,-260.46)">
                <path d="M1035.11,1379.35C1029.37,1396.47 1023.63,1413.59 1017.89,1430.71" style="fill:rgb(74,90,107);"/>
                <path d="M1019.31,1374.05L1010.12,1428.11C1008.68,1432.39 1011,1437.04 1015.28,1438.48C1019.57,1439.92 1024.22,1437.6 1025.66,1433.31L1050.91,1384.65C1053.84,1375.93 1049.13,1366.47 1040.41,1363.55C1031.69,1360.62 1022.23,1365.33 1019.31,1374.05Z" style="fill:rgb(47,38,50);"/>
            </g>
            <g transform="matrix(1.06378,0,0,1.06378,2015.62,-260.46)">
                <path d="M1035.11,1379.35C1029.37,1396.47 1023.63,1413.59 1017.89,1430.71" style="fill:rgb(74,90,107);"/>
                <path d="M1050.91,1384.65L1025.66,1433.31C1024.22,1437.6 1019.57,1439.92 1015.28,1438.48C1011,1437.04 1008.68,1432.39 1010.12,1428.11L1019.31,1374.05C1022.23,1365.33 1031.69,1360.62 1040.41,1363.55C1049.13,1366.47 1053.84,1375.93 1050.91,1384.65Z" style="fill:rgb(47,38,50);"/>
            </g>
            <g transform="matrix(-1.07032,0,0,1.06378,4303.54,-260.46)">
                <path d="M1035.34,1379.35L1072.07,1342.49L1071.78,983.119C1071.78,983.119 1012.55,940.098 977.756,932.765C935.215,923.799 816.535,929.321 816.535,929.321L749.986,1272.01L769.192,1321.95C872.395,1334.5 961.159,1353.61 1035.34,1379.35Z" style="fill:rgb(214,220,189);"/>
                <clipPath id="_clip3">
                    <path d="M1035.34,1379.35L1072.07,1342.49L1071.78,983.119C1071.78,983.119 1012.55,940.098 977.756,932.765C935.215,923.799 816.535,929.321 816.535,929.321L749.986,1272.01L769.192,1321.95C872.395,1334.5 961.159,1353.61 1035.34,1379.35Z"/>
                </clipPath>
                <g clip-path="url(#_clip3)">
                    <g transform="matrix(0.99389,0,0,1,6.54938,7.38964e-13)">
                        <path d="M1036.09,1311.8C1043.3,1256.43 1043.15,1027.9 1048.46,970.763C1049.06,964.285 1064.21,966.493 1067.89,968.996C1071.58,971.499 1070.46,980.118 1070.54,985.782C1071.43,1044.83 1077.76,1256.87 1073.19,1323.28C1071.64,1345.88 1065.81,1383.83 1043.15,1384.25C994.415,1385.13 828.956,1347.41 780.753,1328.58C761.105,1320.91 732.983,1273.65 753.942,1271.26C791.344,1266.99 958.14,1296.21 1005.17,1302.96C1015.78,1304.49 1034.7,1322.43 1036.09,1311.8Z" style="fill:rgb(193,147,130);"/>
                    </g>
                    <g transform="matrix(0.99389,0,0,1,6.54938,7.38964e-13)">
                        <path d="M1054.22,1336.32C1038.47,1322.96 978.132,1301.53 937.597,1292.5C887.885,1281.42 783.667,1265.71 755.948,1269.88C739.457,1272.36 755.654,1311.69 771.283,1317.5C817.308,1334.63 984.939,1369.5 1032.1,1372.63C1046.24,1373.57 1065.03,1345.49 1054.22,1336.32Z" style="fill:rgb(147,100,122);"/>
                    </g>
                    <g transform="matrix(0.99389,0,0,1,6.54938,10.255)">
                        <path d="M747.757,1261.3C770.469,1263.25 807.42,1266.41 844.832,1271.7C866.788,1274.8 888.874,1278.64 908.286,1283.4C928.174,1288.27 950.454,1295.37 972.415,1303.06C1009.19,1315.95 1044.96,1330.56 1067.01,1339.55C1073.37,1341.96 1080.49,1338.77 1082.9,1332.41C1085.32,1326.06 1082.12,1318.93 1075.76,1316.52C1053.07,1308.51 1016.24,1295.51 978.488,1284.29C955.61,1277.5 932.43,1271.34 911.815,1267.33C891.736,1263.42 868.972,1260.57 846.374,1258.48C808.508,1254.98 771.209,1253.59 748.283,1252.73C745.918,1252.59 743.881,1254.39 743.736,1256.76C743.591,1259.12 745.392,1261.16 747.757,1261.3Z" style="fill:rgb(240,244,242);"/>
                    </g>
                </g>
                <path d="M1035.34,1379.35L1072.07,1342.49L1071.78,983.119C1071.78,983.119 1012.55,940.098 977.756,932.765C935.215,923.799 816.535,929.321 816.535,929.321L749.986,1272.01L769.192,1321.95C872.395,1334.5 961.159,1353.61 1035.34,1379.35Z" style="fill:none;stroke:rgb(65,44,60);stroke-width:33.23px;"/>
            </g>
            <g transform="matrix(1.07032,0,0,1.06378,2008.93,-260.46)">
                <path d="M1035.34,1379.35L1072.09,1342.49L1071.78,983.119C1071.78,983.119 1012.55,940.098 977.756,932.765C935.215,923.799 816.535,929.321 816.535,929.321L750.012,1272.01L769.192,1321.95C872.395,1334.5 961.159,1353.61 1035.34,1379.35Z" style="fill:rgb(214,220,189);"/>
                <clipPath id="_clip4">
                    <path d="M1035.34,1379.35L1072.09,1342.49L1071.78,983.119C1071.78,983.119 1012.55,940.098 977.756,932.765C935.215,923.799 816.535,929.321 816.535,929.321L750.012,1272.01L769.192,1321.95C872.395,1334.5 961.159,1353.61 1035.34,1379.35Z"/>
                </clipPath>
                <g clip-path="url(#_clip4)">
                    <g transform="matrix(-0.99389,0,0,1,2137.31,3.97904e-13)">
                        <path d="M1065.24,1339.19C1071.58,1318.28 1123.96,1277.11 1155.36,1248.18C1187.17,1218.88 1246.02,1206.09 1256.08,1163.37C1268.6,1110.21 1217.35,971.205 1230.46,929.238C1240.97,895.593 1313.48,883.434 1334.71,911.568C1364.16,950.589 1401.42,1095.49 1407.16,1163.37C1411.66,1216.54 1412.36,1287.53 1369.17,1318.87C1320.87,1353.91 1168.03,1370.26 1117.37,1373.64C1096.59,1375.03 1059.21,1359.12 1065.24,1339.19Z" style="fill:rgb(193,147,130);"/>
                    </g>
                    <g transform="matrix(-0.99389,0,0,1,2137.31,3.97904e-13)">
                        <path d="M1208.09,1354.26C1174.96,1361.96 1131.48,1383.63 1109.84,1381.82C1093.32,1380.44 1067.63,1356.12 1078.25,1343.39C1089.01,1330.5 1141.45,1315.01 1174.38,1304.51C1212.07,1292.5 1269.9,1277.22 1304.43,1271.29C1329.78,1266.94 1367.76,1267.35 1381.55,1268.96C1385.95,1269.47 1387.84,1276.59 1387.21,1280.97C1385.98,1289.54 1386.98,1315.1 1374.19,1320.33C1344.34,1332.54 1252.15,1344.01 1208.09,1354.26Z" style="fill:rgb(147,99,121);"/>
                    </g>
                    <g transform="matrix(0.99389,0,0,1,7.6298,10.255)">
                        <path d="M748.283,1252.73C771.209,1253.59 808.508,1254.98 846.374,1258.48C868.972,1260.57 891.736,1263.42 911.815,1267.33C932.43,1271.34 955.61,1277.5 978.488,1284.29C1016.24,1295.51 1053.07,1308.51 1075.76,1316.52C1082.12,1318.93 1085.32,1326.06 1082.9,1332.41C1080.49,1338.77 1073.37,1341.96 1067.01,1339.55C1044.96,1330.56 1009.19,1315.95 972.415,1303.06C950.454,1295.37 928.174,1288.27 908.286,1283.4C888.874,1278.64 866.788,1274.8 844.832,1271.7C807.42,1266.41 770.469,1263.25 747.757,1261.3C745.392,1261.16 743.591,1259.12 743.736,1256.76C743.881,1254.39 745.918,1252.59 748.283,1252.73Z" style="fill:rgb(214,220,189);"/>
                    </g>
                </g>
                <path d="M1035.34,1379.35L1072.09,1342.49L1071.78,983.119C1071.78,983.119 1012.55,940.098 977.756,932.765C935.215,923.799 816.535,929.321 816.535,929.321L750.012,1272.01L769.192,1321.95C872.395,1334.5 961.159,1353.61 1035.34,1379.35Z" style="fill:none;stroke:rgb(65,44,60);stroke-width:33.23px;"/>
            </g>
            <g transform="matrix(-1.06378,0,0,1.06378,4296.87,-253.434)">
                <path d="M1300.25,967.15C1294.78,966.838 1283.85,966.214 1275.64,966.065C1265.69,965.884 1248.92,966.004 1240.54,966.065" style="fill:none;stroke:rgb(140,87,80);stroke-width:16.67px;"/>
            </g>
            <g transform="matrix(-1.06378,0,0,1.06378,4295.33,-257.453)">
                <path d="M1290.23,1002.75C1275.72,1002.94 1261.2,1003.13 1246.69,1003.32" style="fill:none;stroke:rgb(140,87,80);stroke-width:16.67px;"/>
            </g>
            <g transform="matrix(-1.06378,0,0,1.06378,4296.53,-260.46)">
                <path d="M1254.04,1084.17C1274.4,1084.36 1294.75,1084.55 1315.11,1084.74" style="fill:none;stroke:rgb(140,87,80);stroke-width:16.67px;"/>
            </g>
            <g transform="matrix(-1.06378,0,0,1.06378,4296.53,-256.851)">
                <path d="M1258.57,1115.28C1279.11,1115.46 1299.65,1115.65 1320.2,1115.84" style="fill:none;stroke:rgb(140,87,80);stroke-width:16.67px;"/>
            </g>
            <g transform="matrix(-1.06378,0,0,1.06378,4296.53,-260.46)">
                <path d="M1257.43,1157.68C1261.88,1156.62 1270.78,1154.48 1277.23,1153.73C1283.48,1152.99 1291.9,1153.1 1296.11,1153.16" style="fill:none;stroke:rgb(140,87,80);stroke-width:16.67px;"/>
            </g>
            <g transform="matrix(-1.06378,0,0,1.06378,4296.53,-260.46)">
                <path d="M1072.46,1343.02C1072.46,1343.02 1127.86,1271.35 1160.25,1245.11C1191.87,1219.49 1266.82,1185.57 1266.82,1185.57L1220.86,815.736C1220.86,815.736 1151.3,843.454 1127.3,870.457C1102.5,898.354 1072.08,983.119 1072.08,983.119L1072.46,1343.02Z" style="fill:rgb(214,220,189);"/>
                <clipPath id="_clip5">
                    <path d="M1072.46,1343.02C1072.46,1343.02 1127.86,1271.35 1160.25,1245.11C1191.87,1219.49 1266.82,1185.57 1266.82,1185.57L1220.86,815.736C1220.86,815.736 1151.3,843.454 1127.3,870.457C1102.5,898.354 1072.08,983.119 1072.08,983.119L1072.46,1343.02Z"/>
                </clipPath>
                <g clip-path="url(#_clip5)">
                    <path d="M1124.19,1283.87C1099.81,1265.59 1110.91,1107.17 1112.35,1079.56C1113.12,1065 1131.48,1132.74 1132.86,1118.22C1135.89,1086.4 1126.55,932.969 1130.5,888.662C1131.82,873.835 1144.48,861.114 1156.53,852.375C1171.57,841.469 1213.15,800.976 1220.73,823.225C1237.22,871.614 1249.13,1081.7 1255.44,1142.71C1257.04,1158.17 1269.19,1177.86 1258.6,1189.25C1236.72,1212.78 1148.56,1302.15 1124.19,1283.87Z" style="fill:rgb(240,244,242);"/>
                </g>
                <path d="M1072.46,1343.02C1072.46,1343.02 1127.86,1271.35 1160.25,1245.11C1191.87,1219.49 1266.82,1185.57 1266.82,1185.57L1220.86,815.736C1220.86,815.736 1151.3,843.454 1127.3,870.457C1102.5,898.354 1072.08,983.119 1072.08,983.119L1072.46,1343.02Z" style="fill:none;stroke:rgb(65,44,60);stroke-width:33.33px;"/>
            </g>
            <g transform="matrix(-1.06378,0,0,1.06378,4296.53,-260.46)">
                <path d="M837.265,1039.14L850.279,972.931C850.279,972.931 874.568,971.533 886.694,972.139C899.887,972.799 929.441,976.889 929.441,976.889L919.15,1045.76C919.15,1045.76 890.05,1041.54 876.402,1040.44C863.392,1039.39 837.265,1039.14 837.265,1039.14Z" style="fill:rgb(193,147,130);stroke:rgb(168,111,107);stroke-width:16.67px;"/>
            </g>
            <g transform="matrix(-1.06378,0,0,1.06378,4296.53,-260.46)">
                <path d="M960.315,983.38C967.86,984.669 982.949,987.246 993.753,990.98C1005.24,994.948 1021.22,1003.11 1029.22,1007.19" style="fill:none;stroke:rgb(168,111,107);stroke-width:16.67px;"/>
            </g>
            <g transform="matrix(-1.06378,0,0,1.06378,4294.37,-262.077)">
                <path d="M953.222,1019.35C960.305,1020.03 974.471,1021.38 984.633,1024.42C996.608,1027.99 1015.58,1036.54 1025.07,1040.81" style="fill:none;stroke:rgb(168,111,107);stroke-width:16.67px;"/>
            </g>
            <g transform="matrix(-1.06378,0,0,1.06378,4298.69,-226.506)">
                <path d="M953.222,1019.35C960.413,1020.17 974.796,1021.82 985.14,1024.92C997.68,1028.69 1018.2,1037.52 1028.46,1041.94" style="fill:none;stroke:rgb(168,111,107);stroke-width:16.67px;"/>
            </g>
            <g transform="matrix(-1.06378,0,0,1.06378,4296.53,-260.46)">
                <path d="M1023.64,1108.01C1023.64,1108.01 995.797,1095.29 981.087,1091.29C965.212,1086.99 928.396,1082.17 928.396,1082.17L908.131,1234.17C908.131,1234.17 952.208,1244.21 970.954,1249.87C987.834,1254.97 1020.61,1268.11 1020.61,1268.11L1023.64,1108.01Z" style="fill:rgb(193,147,130);stroke:rgb(168,111,107);stroke-width:16.67px;"/>
            </g>
            <g transform="matrix(-1.06378,0,0,1.06378,4291.68,-261.538)">
                <path d="M828.082,1072.04C835.991,1072.63 851.809,1073.82 862.533,1075.08C872.543,1076.26 885.798,1078.52 892.425,1079.64" style="fill:none;stroke:rgb(168,111,107);stroke-width:16.67px;"/>
            </g>
            <g transform="matrix(-1.06378,0,0,1.06378,4299.76,-224.889)">
                <path d="M828.082,1072.04C835.991,1072.63 851.809,1073.82 862.533,1075.08C872.543,1076.26 885.798,1078.52 892.425,1079.64" style="fill:none;stroke:rgb(168,111,107);stroke-width:16.67px;"/>
            </g>
            <g transform="matrix(-1.06378,0,0,1.06378,4305.15,-189.319)">
                <path d="M828.082,1072.04C839.566,1073.06 851.049,1074.07 862.533,1075.08" style="fill:none;stroke:rgb(168,111,107);stroke-width:16.67px;"/>
            </g>
            <g transform="matrix(-1.06378,0,0,1.06378,4290.93,-256.58)">
                <path d="M846.726,1220.08C853.481,1220.76 860.236,1221.43 866.992,1222.11" style="fill:none;stroke:rgb(168,111,107);stroke-width:16.67px;"/>
            </g>
            <g transform="matrix(-1.06378,0,0,1.06378,4298.15,-260.46)">
                <path d="M1102.79,996.329C1106.56,987.335 1114.09,969.347 1121.54,956.812C1129.81,942.879 1141.21,925.231 1152.44,912.734C1163.1,900.88 1180.31,888.179 1188.92,881.829" style="fill:none;stroke:rgb(168,111,107);stroke-width:16.67px;"/>
            </g>
            <g transform="matrix(-1.06378,0,0,1.06378,4295.45,-280.94)">
                <path d="M1103.3,1054.59C1107.25,1046.73 1115.15,1031.02 1122.55,1020.14C1130.83,1007.98 1145.58,990.419 1152.95,981.637" style="fill:none;stroke:rgb(168,111,107);stroke-width:16.67px;"/>
            </g>
            <g transform="matrix(-1.06378,0,0,1.06378,4287.37,-272.856)">
                <path d="M1189.93,1176.19C1195.17,1173.32 1200.4,1170.44 1205.64,1167.57" style="fill:none;stroke:rgb(168,111,107);stroke-width:16.67px;"/>
            </g>
            <g transform="matrix(-1.06378,0,0,1.06378,4298.94,-273.453)">
                <path d="M1336.48,1235.27L1354.57,1235.27" style="fill:none;stroke:rgb(140,87,80);stroke-width:16.67px;"/>
            </g>
        </g>
        <circle cx="3156.08" cy="1007.62" r="517.92" style="fill:none;stroke:rgb(214,220,189);stroke-width:44.32px;"/>
    </g>
</svg>
