<?xml version="1.0" encoding="utf-8"?>
<svg width="100%" height="100%" viewBox="0 0 1016 1016" version="1.1" style="fill-rule:evenodd;clip-rule:evenodd;stroke-linecap:round;stroke-linejoin:round;stroke-miterlimit:1.5;" xmlns="http://www.w3.org/2000/svg" xmlns:bx="https://boxy-svg.com">
  <defs>
    <linearGradient id="color-1" bx:pinned="true">
      <title>Light Pages</title>
      <stop style="stop-color: rgb(241, 242, 228)"/>
    </linearGradient>
    <linearGradient id="color-0" bx:pinned="true">
      <title>Pages</title>
      <stop style="stop-color: rgb(219, 221, 173)"/>
    </linearGradient>
    <linearGradient id="color-6" bx:pinned="true">
      <title>Dark Pages</title>
      <stop style="stop-color: rgb(198, 154, 119)"/>
    </linearGradient>
    <linearGradient id="color-7" bx:pinned="true">
      <title>Text</title>
      <stop style="stop-color: rgb(176, 117, 98)"/>
    </linearGradient>
    <linearGradient id="color-8" bx:pinned="true">
      <title>Text Fill</title>
      <stop style="stop-color: rgb(198, 154, 119)"/>
    </linearGradient>
    <linearGradient id="color-9" bx:pinned="true">
      <title>Dark Text</title>
      <stop style="stop-color: rgb(147, 92, 75)"/>
    </linearGradient>
    <linearGradient id="color-2" bx:pinned="true">
      <title>Page Edge</title>
      <stop style="stop-color: rgb(73, 50, 59)"/>
    </linearGradient>
    <linearGradient id="color-10" bx:pinned="true">
      <title>Page Side</title>
      <stop style="stop-color: rgb(156, 103, 112)"/>
    </linearGradient>
    <linearGradient id="color-3" bx:pinned="true">
      <title>Cover</title>
      <stop style="stop-color: rgb(132, 102, 82);"/>
    </linearGradient>
    <linearGradient id="color-4" bx:pinned="true">
      <title>Dark Cover</title>
      <stop style="stop-color: rgb(96, 69, 69);"/>
    </linearGradient>
    <linearGradient id="color-5" bx:pinned="true">
      <title>Cover Edge</title>
      <stop style="stop-color: rgb(58, 46, 51)"/>
    </linearGradient>
  </defs>
  <g transform="matrix(-0.940047,0,0,0.940047,3474.56,-439.503)">
    <circle cx="3156.08" cy="1007.62" r="517.92" style="stroke-width: 44.32px; stroke: rgb(219, 221, 173); fill: rgb(136, 136, 136);"/>
    <g transform="matrix(-1.06378, 0, 0, 1.06378, 4296.529785, -260.459991)" style="">
      <title>Cover</title>
      <g>
        <title>Background</title>
        <path d="M 684.142 1338.47 C 683.542 1357.84 682.343 1396.57 703.854 1405.48 C 752.923 1425.81 926.818 1445.48 978.557 1460.43 C 994.517 1465.04 999.189 1488.25 1014.28 1495.18 C 1029.87 1502.34 1052.62 1503.67 1072.08 1503.39 C 1092.29 1503.11 1119.01 1500.91 1135.54 1493.46 C 1150.68 1486.64 1155.3 1463.33 1171.27 1458.72 C 1222.05 1444.05 1392.19 1425.23 1440.22 1405.48 C 1461.19 1396.86 1460.01 1359.1 1459.42 1340.22" style="fill: url(#color-3);"/>
        <path d="M 1072.074 967.193 C 1058.544 967.193 1040.814 974.843 1031.494 980.973 C 1023.794 986.023 1024.824 1000.863 1016.134 1003.933 C 990.119 1013.113 922.528 1026.393 875.387 1036.073 C 822.287 1046.983 729.307 1058.273 697.532 1069.373 C 686.307 1073.293 682.736 1090.943 684.736 1102.663 C 695.612 1166.373 743.595 1391.003 762.788 1451.662 C 766.81 1464.373 786.565 1466.807 799.895 1466.587 C 834.655 1466.013 925.99 1457.976 971.353 1448.218 C 1006.694 1440.616 1038.504 1408.033 1072.074 1408.033 C 1105.644 1408.033 1137.454 1440.616 1172.794 1448.218 C 1218.154 1457.976 1309.494 1466.013 1344.254 1466.587 C 1357.584 1466.807 1377.334 1464.373 1381.364 1451.662 C 1400.554 1391.003 1448.534 1166.373 1459.414 1102.663 C 1461.414 1090.943 1457.844 1073.293 1446.614 1069.373 C 1414.844 1058.273 1321.864 1046.983 1268.764 1036.073 C 1221.624 1026.393 1154.034 1013.113 1128.014 1003.933 C 1119.334 1000.863 1120.354 986.023 1112.654 980.973 C 1103.334 974.843 1085.604 967.193 1072.074 967.193 Z" style="fill: url(#color-4);" transform="matrix(-1, 0, 0, -1, 2144.150024, 2433.793213)"/>
        <path d="M 950.515 1443.24 C 964.977 1440.74 791.957 1359.36 758.825 1337.54 C 751.526 1332.73 750.672 1320.97 751.726 1312.29 C 759.088 1251.68 803.79 1029.49 803.001 973.878 C 802.735 955.144 770.501 960.035 764.378 977.742 C 742.553 1040.851 683.489 1340.473 694.031 1359.001 C 735.839 1432.484 936.053 1445.74 950.515 1443.24 Z" style="fill: url(#color-3);"/>
      </g>
      <g>
        <title>Linework</title>
        <path d="M 671.717 1338.09 C 671.066 1352.66 670.457 1377.1 677.299 1394.45 C 681.57 1405.29 688.661 1413.57 698.71 1417.9 C 711.069 1423.2 731.052 1428.64 755.057 1433.92 C 826.505 1449.61 935.149 1464.46 974.029 1476.1 C 978.279 1477.36 980.175 1481.9 982.852 1485.77 C 986.467 1490.99 990.082 1496.33 994.295 1500.71 C 998.122 1504.69 1002.44 1507.95 1007.37 1510.23 C 1015.18 1513.84 1024.48 1516.31 1034.38 1517.84 C 1046.75 1519.75 1060.13 1520.19 1072.32 1520.03 C 1084.83 1519.82 1099.68 1518.91 1113.37 1516.61 C 1124.15 1514.8 1134.24 1512.11 1142.29 1508.45 C 1147.24 1506.18 1151.58 1502.93 1155.41 1498.94 C 1160.43 1493.71 1164.54 1487.03 1168.95 1480.98 C 1170.97 1478.2 1172.59 1475.12 1175.73 1474.19 C 1213.88 1462.77 1320.15 1448.45 1390.06 1433.31 C 1413.59 1428.21 1433.17 1422.96 1445.29 1417.81 C 1455.17 1413.61 1462.15 1405.49 1466.36 1394.86 C 1473.06 1377.94 1472.47 1354.06 1471.84 1339.83 C 1471.63 1332.98 1465.88 1327.58 1459.03 1327.8 C 1452.17 1328.01 1446.78 1333.75 1446.99 1340.61 C 1447.15 1349.25 1447.43 1362.14 1445.3 1373.93 C 1443.81 1382.22 1441.92 1390.47 1435.15 1393.16 C 1424 1397.59 1405.99 1401.76 1384.44 1405.95 C 1313.38 1419.76 1205.62 1432.44 1166.8 1443.24 C 1161.08 1444.86 1156.16 1447.81 1151.77 1451.68 C 1147 1455.88 1142.95 1461.4 1138.99 1467.04 C 1135.9 1471.44 1133.4 1476.44 1128.79 1478.48 C 1123.01 1481.05 1115.72 1482.73 1108 1483.98 C 1095.94 1485.92 1082.86 1486.62 1071.84 1486.75 C 1061.42 1486.91 1049.98 1486.6 1039.39 1485 C 1032.74 1484 1026.45 1482.53 1021.2 1480.13 C 1016.59 1478.04 1014.09 1473.01 1011 1468.61 C 1007.02 1462.95 1002.95 1457.43 998.16 1453.21 C 993.762 1449.34 988.823 1446.39 983.085 1444.76 C 943.534 1433.75 833.428 1420.5 760.817 1406.23 C 738.806 1401.9 720.394 1397.62 708.997 1393.07 C 701.959 1390.26 699.92 1381.73 698.354 1373.12 C 696.146 1360.99 696.413 1347.74 696.566 1338.86 C 696.778 1332 691.384 1326.26 684.526 1326.05 C 677.669 1325.83 671.93 1331.23 671.717 1338.09 Z" style="fill: url(#color-5);"/>
        <path d="M 1070.766 1475.66 L 1070.766 1345.66 C 1070.766 1345.66 1036.376 1389.2 1027.856 1404.98 C 1022.106 1415.62 1013.376 1429.98 1019.656 1440.32 C 1026.806 1452.1 1070.766 1475.66 1070.766 1475.66 Z" style="fill: url(#color-5);"/>
        <path d="M 1133.666 988.432 C 1142.856 991.512 1156.796 994.992 1172.946 998.652 C 1203.466 1005.572 1241.696 1012.992 1271.646 1018.992 C 1311.036 1026.882 1372.356 1034.882 1414.386 1042.942 C 1429.856 1045.912 1442.846 1048.952 1451.526 1051.942 C 1459.946 1054.832 1466.426 1061.622 1470.326 1070.582 C 1474.456 1080.042 1475.486 1092.012 1473.946 1101.282 C 1467.756 1138.442 1449.226 1230.102 1431.036 1312.372 C 1417.836 1372.122 1404.786 1426.952 1396.756 1452.652 C 1394.256 1460.661 1388.806 1466.824 1381.316 1471.143 C 1370.976 1477.107 1355.736 1479.016 1344.146 1478.855 C 1325.716 1478.601 1291.626 1476.345 1256.676 1472.825 C 1224.516 1469.584 1191.636 1465.253 1169.486 1460.538 C 1144.236 1455.139 1120.536 1437.922 1096.966 1427.332 C 1088.756 1423.642 1080.596 1420.842 1072.236 1420.852 C 1063.886 1420.852 1055.736 1423.672 1047.526 1427.372 C 1023.956 1437.982 1000.246 1455.194 975.003 1460.602 C 952.851 1465.334 919.973 1469.693 887.805 1472.952 C 852.86 1476.494 818.761 1478.758 800.325 1479.021 C 788.713 1479.186 773.428 1477.276 763.064 1471.298 C 755.536 1466.955 750.065 1460.757 747.55 1452.704 C 739.52 1427.002 726.444 1372.172 713.236 1312.412 C 695.052 1230.142 676.55 1138.472 670.363 1101.312 C 668.824 1092.012 669.865 1080.002 674.001 1070.522 C 677.926 1061.522 684.437 1054.702 692.894 1051.792 C 701.584 1048.812 714.575 1045.772 730.056 1042.802 C 772.087 1034.742 833.405 1026.762 872.802 1018.872 C 902.759 1012.892 940.989 1005.512 971.517 998.612 C 987.665 994.962 1001.596 991.482 1010.796 988.412 C 1011.206 987.582 1011.946 986.062 1012.326 985.072 C 1013.706 981.502 1015.096 977.832 1016.966 974.752 C 1018.996 971.412 1021.516 968.602 1024.696 966.542 C 1030.196 962.972 1038.236 958.912 1046.866 955.872 C 1055.366 952.882 1064.406 950.892 1072.236 950.932 C 1080.066 950.892 1089.106 952.882 1097.606 955.882 C 1106.236 958.922 1114.266 962.982 1119.766 966.562 C 1122.936 968.612 1125.466 971.422 1127.496 974.762 C 1129.366 977.842 1130.746 981.512 1132.126 985.072 C 1132.506 986.072 1133.246 987.602 1133.666 988.432 Z M 778.197 1442.464 C 778.178 1442.444 778.154 1442.444 778.125 1442.469 C 777.559 1442.968 779.384 1443.329 780.143 1443.675 C 781.992 1444.517 784.092 1445.063 786.244 1445.48 C 790.848 1446.371 795.698 1446.568 799.788 1446.491 C 817.63 1446.156 850.616 1443.754 884.426 1440.202 C 915.265 1436.962 946.794 1432.771 968.027 1428.172 C 980.32 1425.512 992.05 1419.272 1003.666 1412.882 C 1017.696 1405.162 1031.526 1397.132 1045.426 1392.372 C 1054.296 1389.332 1063.226 1387.552 1072.236 1387.562 C 1081.246 1387.572 1090.166 1389.362 1099.036 1392.412 C 1112.926 1397.182 1126.756 1405.202 1140.786 1412.932 C 1152.396 1419.332 1164.136 1425.572 1176.436 1428.232 C 1197.666 1432.852 1229.196 1437.071 1260.036 1440.329 C 1293.846 1443.902 1326.836 1446.313 1344.686 1446.656 C 1348.786 1446.735 1353.646 1446.541 1358.266 1445.649 C 1360.426 1445.23 1362.546 1444.683 1364.406 1443.835 C 1365.186 1443.479 1367.056 1443.097 1366.476 1442.582 C 1366.456 1442.564 1366.436 1442.561 1366.426 1442.573 L 1366.286 1443.01 C 1366.326 1442.884 1366.346 1442.61 1366.426 1442.573 C 1374.506 1417.232 1387.606 1363.802 1400.956 1305.592 C 1419.636 1224.062 1438.766 1133.212 1445.206 1096.372 C 1445.726 1093.402 1445.676 1089.832 1445.016 1086.432 C 1444.666 1084.632 1444.176 1082.872 1443.416 1081.322 C 1443.006 1080.472 1442.846 1079.432 1442.026 1079.132 C 1431.166 1075.282 1412.786 1071.432 1391.356 1067.512 C 1351.056 1060.122 1300.376 1052.692 1266.196 1045.502 C 1236.106 1039.162 1197.706 1031.332 1167.046 1024.062 C 1149.046 1019.792 1133.656 1015.682 1123.906 1012.182 C 1119.576 1010.622 1116.176 1007.962 1113.516 1004.382 C 1111.186 1001.232 1109.446 997.202 1107.906 993.032 C 1107.386 991.632 1106.886 990.212 1106.276 988.892 C 1106.066 988.452 1105.656 987.722 1105.516 987.502 C 1101.396 984.802 1095.466 981.802 1089.136 979.502 C 1083.466 977.432 1077.476 975.822 1072.236 975.792 C 1066.996 975.822 1061.006 977.442 1055.336 979.502 C 1049.016 981.812 1043.096 984.802 1038.976 987.502 C 1038.736 988.012 1037.266 991.202 1036.586 993.042 C 1035.046 997.212 1033.306 1001.252 1030.976 1004.392 C 1028.306 1007.982 1024.906 1010.642 1020.576 1012.202 C 1010.826 1015.702 995.43 1019.822 977.43 1024.102 C 946.779 1031.392 908.382 1039.262 878.296 1045.622 C 844.121 1052.812 793.445 1060.262 753.138 1067.652 C 731.719 1071.582 713.352 1075.422 702.493 1079.282 C 701.705 1079.562 701.59 1080.572 701.193 1081.382 C 700.441 1082.932 699.951 1084.682 699.606 1086.462 C 698.952 1089.842 698.913 1093.392 699.433 1096.352 C 705.876 1133.182 725.031 1224.022 743.718 1305.552 C 757.047 1363.702 770.114 1417.092 778.197 1442.464 C 778.275 1442.524 778.306 1442.819 778.35 1442.958 L 778.197 1442.464 Z" style="fill: url(#color-5);" transform="matrix(-1, 0, 0, -1, 2144.312073, 2429.962158)"/>
        <path d="M 1019.31 1374.05 L 1010.12 1428.11 C 1008.68 1432.39 1011 1437.04 1015.28 1438.48 C 1019.57 1439.92 1024.22 1437.6 1025.66 1433.31 L 1050.91 1384.65 C 1053.84 1375.93 1049.13 1366.47 1040.41 1363.55 C 1031.69 1360.62 1022.23 1365.33 1019.31 1374.05 Z" style="fill: url(#color-5);"/>
        <path d="M 1133.593 1416.937 L 1108.343 1368.277 C 1106.903 1363.987 1102.253 1361.667 1097.963 1363.107 C 1093.683 1364.547 1091.363 1369.197 1092.803 1373.477 L 1101.993 1427.537 C 1104.913 1436.257 1114.373 1440.967 1123.093 1438.037 C 1131.813 1435.117 1136.523 1425.657 1133.593 1416.937 Z" style="fill: url(#color-5);" transform="matrix(-1, 0, 0, -1, 2226.838989, 2801.587158)"/>
      </g>
    </g>
    <g transform="matrix(-1.07032, 0, 0, 1.06378, 4303.540039, -260.459991)" style="">
      <title>Left page</title>
      <path d="M1035.34,1379.35L1072.07,1342.49L1071.78,983.119C1071.78,983.119 1012.55,940.098 977.756,932.765C935.215,923.799 816.535,929.321 816.535,929.321L749.986,1272.01L769.192,1321.95C872.395,1334.5 961.159,1353.61 1035.34,1379.35Z" style="fill: url(#color-0);"/>
      <path d="M 1036.309 1311.8 C 1043.475 1256.43 1043.326 1027.9 1048.603 970.763 C 1049.2 964.285 1064.257 966.493 1067.915 968.996 C 1071.582 971.499 1070.469 980.118 1070.549 985.782 C 1071.433 1044.83 1077.724 1256.87 1073.182 1323.28 C 1071.642 1345.88 1071.052 1359.511 1048.531 1359.931 C 1000.094 1360.811 1034.928 1322.43 1036.309 1311.8 Z" style="fill: url(#color-6);"/>
      <path d="M 1054.328 1336.32 C 1038.675 1322.96 978.705 1301.53 938.418 1292.5 C 889.01 1281.42 785.428 1265.71 757.879 1269.88 C 741.488 1272.36 757.586 1311.69 773.12 1317.5 C 818.864 1334.63 985.471 1369.5 1032.343 1372.63 C 1046.397 1373.57 1065.072 1345.49 1054.328 1336.32 Z" style="fill: url(#color-10);"/>
      <path d="M 749.738 1271.555 C 772.311 1273.505 809.036 1276.665 846.22 1281.955 C 868.041 1285.055 889.993 1288.895 909.286 1293.655 C 929.052 1298.525 951.196 1305.625 973.023 1313.315 C 1009.573 1326.205 1045.125 1340.815 1067.04 1349.805 C 1073.361 1352.215 1080.438 1349.025 1082.833 1342.665 C 1085.238 1336.315 1082.058 1329.185 1075.737 1326.775 C 1053.185 1318.765 1016.58 1305.765 979.059 1294.545 C 956.321 1287.755 933.282 1281.595 912.793 1277.585 C 892.837 1273.675 870.212 1270.825 847.752 1268.735 C 810.118 1265.235 773.046 1263.845 750.26 1262.985 C 747.91 1262.845 745.885 1264.645 745.741 1267.015 C 745.597 1269.375 747.387 1271.415 749.738 1271.555 Z" style="fill: url(#color-1);"/>
      <path d="M 1035.34 1379.35 L 1072.07 1342.49 L 1071.78 983.119 C 1071.78 983.119 1012.55 940.098 977.756 932.765 C 935.215 923.799 816.535 929.321 816.535 929.321 L 749.986 1272.01 L 769.192 1321.95 C 872.395 1334.5 961.159 1353.61 1035.34 1379.35 Z" style="fill: none; stroke-width: 33.23px; stroke: url(#color-2);">
        <title>Border</title>
      </path>
      <g transform="matrix(0.99389, 0, 0, 1, 6.54968, 0)" style="">
        <title>Text</title>
        <path d="M837.265,1039.14L850.279,972.931C850.279,972.931 874.568,971.533 886.694,972.139C899.887,972.799 929.441,976.889 929.441,976.889L919.15,1045.76C919.15,1045.76 890.05,1041.54 876.402,1040.44C863.392,1039.39 837.265,1039.14 837.265,1039.14Z" style="stroke-width: 16.67px; stroke: url(#color-7); fill: url(#color-8);"/>
        <path d="M 960.314 983.38 C 967.859 984.669 982.948 987.246 993.752 990.98 C 1005.239 994.948 1021.219 1003.11 1029.219 1007.19" style="fill: none; stroke-width: 16.67px; stroke: url(#color-7);"/>
        <path d="M 955.252 1017.83 C 962.335 1018.51 976.501 1019.86 986.663 1022.9 C 998.638 1026.47 1017.61 1035.02 1027.1 1039.29" style="fill: none; stroke-width: 16.67px; stroke: url(#color-7);"/>
        <path d="M 951.191 1051.268 C 958.382 1052.088 972.765 1053.738 983.109 1056.838 C 995.649 1060.608 1016.169 1069.438 1026.429 1073.858" style="fill: none; stroke-width: 16.67px; stroke: url(#color-7);"/>
        <path d="M 1023.639 1108.01 C 1023.639 1108.01 995.796 1095.29 981.086 1091.29 C 965.211 1086.99 928.396 1082.17 928.396 1082.17 L 908.131 1234.17 C 908.131 1234.17 952.207 1244.21 970.953 1249.87 C 987.833 1254.97 1020.609 1268.11 1020.609 1268.11 L 1023.639 1108.01 Z" style="stroke-width: 16.67px; stroke: url(#color-7); fill: url(#color-8);"/>
        <path d="M 832.64 1071.027 C 840.549 1071.617 856.367 1072.807 867.091 1074.067 C 877.101 1075.247 890.356 1077.507 896.983 1078.627" style="fill: none; stroke-width: 16.67px; stroke: url(#color-7);"/>
        <path d="M 825.045 1105.478 C 832.954 1106.068 848.772 1107.258 859.496 1108.518 C 869.506 1109.698 882.761 1111.958 889.388 1113.078" style="fill: none; stroke-width: 16.67px; stroke: url(#color-7);"/>
        <path d="M 819.978 1138.916 C 831.462 1139.936 842.945 1140.946 854.429 1141.956" style="fill: none; stroke-width: 16.67px; stroke: url(#color-7);"/>
        <path d="M 851.989 1223.727 C 858.744 1224.407 865.499 1225.077 872.255 1225.757" style="fill: none; stroke-width: 16.67px; stroke: url(#color-7);"/>
      </g>
    </g>
    <g transform="matrix(1.07032, 0, 0, 1.06378, 2008.930054, -260.459991)" style="">
      <title>Right page</title>
      <path d="M1035.34,1379.35L1072.09,1342.49L1071.78,983.119C1071.78,983.119 1012.55,940.098 977.756,932.765C935.215,923.799 816.535,929.321 816.535,929.321L750.012,1272.01L769.192,1321.95C872.395,1334.5 961.159,1353.61 1035.34,1379.35Z" style="fill:rgb(214,220,189);"/>
      <path d="M 737.369 930.452 C 743.671 951.362 795.731 992.532 826.939 1021.462 C 858.554 1050.762 917.045 1063.552 927.043 1106.272 C 939.487 1159.432 888.55 1298.437 901.58 1340.404 C 912.026 1374.049 1002.941 1342.003 1002.941 1342.003 L 1065.935 999.333 C 1065.935 999.333 1082.369 982.112 1039.442 950.772 C 991.438 915.732 839.531 899.382 789.181 896.002 C 768.528 894.612 731.376 910.522 737.369 930.452 Z" style="fill: rgb(198, 154, 119);" transform="matrix(-1, 0, 0, -1, 1815.947449, 2269.642334)"/>
      <path d="M 889.986 1295.497 C 857.058 1287.797 813.844 1266.127 792.336 1267.937 C 775.917 1269.317 750.384 1293.637 760.939 1306.367 C 771.633 1319.257 823.753 1334.747 856.482 1345.247 C 893.942 1357.257 951.418 1372.537 985.737 1378.467 C 1010.932 1382.817 1048.68 1382.407 1062.386 1380.797 C 1066.759 1380.287 1068.638 1373.167 1068.011 1368.787 C 1066.789 1360.217 1067.783 1334.657 1055.071 1329.427 C 1025.403 1317.217 933.777 1305.747 889.986 1295.497 Z" style="fill: url(#color-10);" transform="matrix(-1, 0, 0, -1, 1826.586975, 2649.75708)"/>
      <path d="M 751.341 1262.985 C 774.127 1263.845 811.198 1265.235 848.833 1268.735 C 871.293 1270.825 893.917 1273.675 913.874 1277.585 C 934.363 1281.595 957.401 1287.755 980.139 1294.545 C 1017.661 1305.765 1054.266 1318.765 1076.817 1326.775 C 1083.138 1329.185 1086.319 1336.315 1083.913 1342.665 C 1081.518 1349.025 1074.442 1352.215 1068.121 1349.805 C 1046.205 1340.815 1010.654 1326.205 974.104 1313.315 C 952.277 1305.625 930.133 1298.525 910.366 1293.655 C 891.073 1288.895 869.122 1285.055 847.3 1281.955 C 810.117 1276.665 773.391 1273.505 750.818 1271.555 C 748.468 1271.415 746.678 1269.375 746.822 1267.015 C 746.966 1264.645 748.99 1262.845 751.341 1262.985 Z" style="fill: url(#color-0);"/>
      <path d="M1035.34,1379.35L1072.09,1342.49L1071.78,983.119C1071.78,983.119 1012.55,940.098 977.756,932.765C935.215,923.799 816.535,929.321 816.535,929.321L750.012,1272.01L769.192,1321.95C872.395,1334.5 961.159,1353.61 1035.34,1379.35Z" style="fill: none; stroke-width: 33.23px; stroke: url(#color-2);">
        <title>Border</title>
      </path>
      <g transform="matrix(-0.99389, 0, 0, 1, 2137.622314, 6.604736)" style="">
        <title>Text</title>
        <path d="M1300.25,967.15C1294.78,966.838 1283.85,966.214 1275.64,966.065C1265.69,965.884 1248.92,966.004 1240.54,966.065" style="fill: none; stroke-width: 16.67px; stroke: url(#color-9);"/>
        <path d="M 1291.677 998.972 C 1277.167 999.162 1262.647 999.352 1248.137 999.542" style="fill: none; stroke-width: 16.67px; stroke: url(#color-9);"/>
        <path d="M 1254.359 1077.565 C 1274.719 1077.755 1295.069 1077.945 1315.429 1078.135" style="fill: none; stroke-width: 16.67px; stroke: url(#color-9);"/>
        <path d="M 1258.889 1112.068 C 1279.429 1112.248 1299.969 1112.438 1320.519 1112.628" style="fill: none; stroke-width: 16.67px; stroke: url(#color-9);"/>
        <path d="M 1257.749 1151.075 C 1262.199 1150.015 1271.099 1147.875 1277.549 1147.125 C 1283.799 1146.385 1292.219 1146.495 1296.429 1146.555" style="fill: none; stroke-width: 16.67px; stroke: url(#color-9);"/>
        <path d="M 1334.533 1216.451 L 1352.635 1216.398" style="fill: none; stroke-width: 16.67px; stroke: url(#color-9);"/>
      </g>
    </g>
    <g transform="matrix(-1.06378, 0, 0, 1.06378, 4296.529785, -260.459991)">
      <title>Turning page</title>
      <path d="M1072.46,1343.02C1072.46,1343.02 1127.86,1271.35 1160.25,1245.11C1191.87,1219.49 1266.82,1185.57 1266.82,1185.57L1220.86,815.736C1220.86,815.736 1151.3,843.454 1127.3,870.457C1102.5,898.354 1072.08,983.119 1072.08,983.119L1072.46,1343.02Z" style="fill: url(#color-0);"/>
      <path d="M 1124.19 1283.87 C 1099.81 1265.59 1110.91 1107.17 1112.35 1079.56 C 1113.12 1065 1131.48 1132.74 1132.86 1118.22 C 1135.89 1086.4 1126.55 932.969 1130.5 888.662 C 1131.82 873.835 1144.48 861.114 1156.53 852.375 C 1171.57 841.469 1213.15 800.976 1220.73 823.225 C 1237.22 871.614 1249.13 1081.7 1255.44 1142.71 C 1257.04 1158.17 1258.6 1189.25 1258.6 1189.25 L 1124.19 1283.87 Z" style="fill: url(#color-1);"/>
      <path d="M1072.46,1343.02C1072.46,1343.02 1127.86,1271.35 1160.25,1245.11C1191.87,1219.49 1266.82,1185.57 1266.82,1185.57L1220.86,815.736C1220.86,815.736 1151.3,843.454 1127.3,870.457C1102.5,898.354 1072.08,983.119 1072.08,983.119L1072.46,1343.02Z" style="fill: none; stroke-width: 33.33px; stroke: url(#color-2);">
        <title>Border</title>
      </path>
      <g transform="matrix(1, 0, 0, 1, -1.522981, 0)" style="">
        <title>Text</title>
        <path d="M1102.79,996.329C1106.56,987.335 1114.09,969.347 1121.54,956.812C1129.81,942.879 1141.21,925.231 1152.44,912.734C1163.1,900.88 1180.31,888.179 1188.92,881.829" style="fill: none; stroke-width: 16.67px; stroke: url(#color-7);"/>
        <path d="M 1105.838 1035.338 C 1109.788 1027.478 1117.688 1011.768 1125.088 1000.888 C 1133.368 988.728 1148.118 971.167 1155.488 962.385" style="fill: none; stroke-width: 16.67px; stroke: url(#color-7);"/>
        <path d="M 1200.063 1164.537 C 1205.303 1161.667 1210.533 1158.787 1215.773 1155.917" style="fill: none; stroke-width: 16.67px; stroke: url(#color-7);"/>
      </g>
    </g>
  </g>
</svg>